<mxfile modified="2020-11-21T15:08:46.643Z" host="app.diagrams.net" agent="5.0 (Windows NT 10.0; Win64; x64) AppleWebKit/537.36 (KHTML, like Gecko) Chrome/87.0.4280.66 Safari/537.36" etag="mXdp9jHgj7l_7m65PhVh" version="13.9.9" type="github">
  <diagram id="Ht1M8jgEwFfnCIfOTk4-" name="Page-1">
    <mxGraphModel dx="1673" dy="1773" grid="1" gridSize="10" guides="1" tooltips="1" connect="1" arrows="1" fold="1" page="1" pageScale="1" pageWidth="1169" pageHeight="827" math="0" shadow="0">
      <root>
        <mxCell id="0" />
        <mxCell id="1" parent="0" />
        <mxCell id="6aDpFVfZze4w23CBUoU--56" value="Subnet Privada" style="points=[[0,0],[0.25,0],[0.5,0],[0.75,0],[1,0],[1,0.25],[1,0.5],[1,0.75],[1,1],[0.75,1],[0.5,1],[0.25,1],[0,1],[0,0.75],[0,0.5],[0,0.25]];outlineConnect=0;gradientColor=none;html=1;whiteSpace=wrap;fontSize=12;fontStyle=0;shape=mxgraph.aws4.group;grIcon=mxgraph.aws4.group_security_group;grStroke=0;strokeColor=#147EBA;fillColor=#E6F2F8;verticalAlign=top;align=left;spacingLeft=30;fontColor=#147EBA;dashed=0;rounded=0;shadow=0;glass=0;sketch=0;" vertex="1" parent="1">
          <mxGeometry x="718.5" y="-400" width="240" height="660" as="geometry" />
        </mxCell>
        <mxCell id="6aDpFVfZze4w23CBUoU--58" value="Subnet Privada" style="points=[[0,0],[0.25,0],[0.5,0],[0.75,0],[1,0],[1,0.25],[1,0.5],[1,0.75],[1,1],[0.75,1],[0.5,1],[0.25,1],[0,1],[0,0.75],[0,0.5],[0,0.25]];outlineConnect=0;gradientColor=none;html=1;whiteSpace=wrap;fontSize=12;fontStyle=0;shape=mxgraph.aws4.group;grIcon=mxgraph.aws4.group_security_group;grStroke=0;strokeColor=#147EBA;fillColor=#E6F2F8;verticalAlign=top;align=left;spacingLeft=30;fontColor=#147EBA;dashed=0;rounded=0;shadow=0;glass=0;sketch=0;" vertex="1" parent="1">
          <mxGeometry x="319.25" y="-400" width="240" height="660" as="geometry" />
        </mxCell>
        <mxCell id="6aDpFVfZze4w23CBUoU--39" value="Sudeste Asiático" style="points=[[0,0],[0.25,0],[0.5,0],[0.75,0],[1,0],[1,0.25],[1,0.5],[1,0.75],[1,1],[0.75,1],[0.5,1],[0.25,1],[0,1],[0,0.75],[0,0.5],[0,0.25]];outlineConnect=0;gradientColor=none;html=1;whiteSpace=wrap;fontSize=12;fontStyle=0;shape=mxgraph.aws4.group;grIcon=mxgraph.aws4.group_region;strokeColor=#147EBA;fillColor=none;verticalAlign=top;align=left;spacingLeft=30;fontColor=#147EBA;dashed=1;rounded=0;shadow=0;glass=0;sketch=0;" vertex="1" parent="1">
          <mxGeometry x="698.5" y="-580" width="280" height="880" as="geometry" />
        </mxCell>
        <mxCell id="6aDpFVfZze4w23CBUoU--37" value="Costa Oeste dos EUA" style="points=[[0,0],[0.25,0],[0.5,0],[0.75,0],[1,0],[1,0.25],[1,0.5],[1,0.75],[1,1],[0.75,1],[0.5,1],[0.25,1],[0,1],[0,0.75],[0,0.5],[0,0.25]];outlineConnect=0;gradientColor=none;html=1;whiteSpace=wrap;fontSize=12;fontStyle=0;shape=mxgraph.aws4.group;grIcon=mxgraph.aws4.group_region;strokeColor=#147EBA;fillColor=none;verticalAlign=top;align=left;spacingLeft=30;fontColor=#147EBA;dashed=1;rounded=0;shadow=0;glass=0;sketch=0;" vertex="1" parent="1">
          <mxGeometry x="300" y="-580" width="280" height="880" as="geometry" />
        </mxCell>
        <mxCell id="6aDpFVfZze4w23CBUoU--36" value="VPC" style="outlineConnect=0;gradientColor=none;html=1;whiteSpace=wrap;fontSize=12;fontStyle=0;shape=mxgraph.aws4.group;grIcon=mxgraph.aws4.group_vpc;strokeColor=#879196;fillColor=none;verticalAlign=top;align=left;spacingLeft=30;fontColor=#879196;dashed=0;rounded=0;shadow=0;glass=0;sketch=0;" vertex="1" parent="1">
          <mxGeometry x="260" y="-620" width="760" height="960" as="geometry" />
        </mxCell>
        <mxCell id="6aDpFVfZze4w23CBUoU--35" value="AWS Cloud" style="points=[[0,0],[0.25,0],[0.5,0],[0.75,0],[1,0],[1,0.25],[1,0.5],[1,0.75],[1,1],[0.75,1],[0.5,1],[0.25,1],[0,1],[0,0.75],[0,0.5],[0,0.25]];outlineConnect=0;gradientColor=none;html=1;whiteSpace=wrap;fontSize=12;fontStyle=0;shape=mxgraph.aws4.group;grIcon=mxgraph.aws4.group_aws_cloud_alt;strokeColor=#232F3E;fillColor=none;verticalAlign=top;align=left;spacingLeft=30;fontColor=#232F3E;dashed=0;rounded=0;shadow=0;glass=0;sketch=0;" vertex="1" parent="1">
          <mxGeometry x="220" y="-660" width="840" height="1040" as="geometry" />
        </mxCell>
        <mxCell id="6aDpFVfZze4w23CBUoU--67" value="&lt;div&gt;&lt;span&gt;&lt;b&gt;Database&lt;/b&gt;&lt;/span&gt;&lt;/div&gt;" style="outlineConnect=0;gradientColor=none;html=1;whiteSpace=wrap;fontSize=12;fontStyle=0;strokeColor=#879196;fillColor=none;verticalAlign=top;align=center;fontColor=#879196;dashed=1;spacingTop=3;rounded=0;shadow=0;glass=0;sketch=0;" vertex="1" parent="1">
          <mxGeometry x="340" y="20" width="600" height="100" as="geometry" />
        </mxCell>
        <mxCell id="6aDpFVfZze4w23CBUoU--66" value="&lt;b&gt;Servidor de Apps&lt;/b&gt;" style="outlineConnect=0;gradientColor=none;html=1;whiteSpace=wrap;fontSize=12;fontStyle=0;strokeColor=#879196;fillColor=none;verticalAlign=top;align=center;fontColor=#879196;dashed=1;spacingTop=3;rounded=0;shadow=0;glass=0;sketch=0;" vertex="1" parent="1">
          <mxGeometry x="340" y="-100" width="600" height="100" as="geometry" />
        </mxCell>
        <mxCell id="6aDpFVfZze4w23CBUoU--110" value="&lt;div&gt;&lt;span&gt;&lt;b&gt;&lt;font style=&quot;font-size: 13px&quot;&gt;Servidor Web&lt;/font&gt;&lt;/b&gt;&lt;/span&gt;&lt;/div&gt;" style="outlineConnect=0;gradientColor=none;html=1;whiteSpace=wrap;fontSize=12;fontStyle=0;strokeColor=#879196;fillColor=none;verticalAlign=top;align=center;fontColor=#879196;dashed=1;spacingTop=3;rounded=0;shadow=0;glass=0;sketch=0;" vertex="1" parent="1">
          <mxGeometry x="342.12" y="-220" width="600" height="100" as="geometry" />
        </mxCell>
        <mxCell id="6aDpFVfZze4w23CBUoU--79" value="&lt;div&gt;&lt;span&gt;&lt;b&gt;Backup&lt;/b&gt;&lt;/span&gt;&lt;/div&gt;" style="outlineConnect=0;gradientColor=none;html=1;whiteSpace=wrap;fontSize=12;fontStyle=0;strokeColor=#879196;fillColor=none;verticalAlign=top;align=center;fontColor=#879196;dashed=1;spacingTop=3;rounded=0;shadow=0;glass=0;sketch=0;" vertex="1" parent="1">
          <mxGeometry x="340" y="140" width="600" height="100" as="geometry" />
        </mxCell>
        <mxCell id="6aDpFVfZze4w23CBUoU--55" value="Subnet Pública" style="points=[[0,0],[0.25,0],[0.5,0],[0.75,0],[1,0],[1,0.25],[1,0.5],[1,0.75],[1,1],[0.75,1],[0.5,1],[0.25,1],[0,1],[0,0.75],[0,0.5],[0,0.25]];outlineConnect=0;gradientColor=none;html=1;whiteSpace=wrap;fontSize=12;fontStyle=0;shape=mxgraph.aws4.group;grIcon=mxgraph.aws4.group_security_group;grStroke=0;strokeColor=#248814;fillColor=#E9F3E6;verticalAlign=top;align=left;spacingLeft=30;fontColor=#248814;dashed=0;rounded=0;shadow=0;glass=0;sketch=0;" vertex="1" parent="1">
          <mxGeometry x="720" y="-540" width="240" height="130" as="geometry" />
        </mxCell>
        <mxCell id="6aDpFVfZze4w23CBUoU--74" value="NAT Gateway" style="outlineConnect=0;fontColor=#232F3E;gradientColor=none;fillColor=#5A30B5;strokeColor=none;dashed=0;verticalLabelPosition=bottom;verticalAlign=top;align=center;html=1;fontSize=12;fontStyle=0;aspect=fixed;pointerEvents=1;shape=mxgraph.aws4.nat_gateway;rounded=0;shadow=0;glass=0;sketch=0;" vertex="1" parent="1">
          <mxGeometry x="878" y="-503" width="60" height="60" as="geometry" />
        </mxCell>
        <mxCell id="6aDpFVfZze4w23CBUoU--57" value="Subnet Pública" style="points=[[0,0],[0.25,0],[0.5,0],[0.75,0],[1,0],[1,0.25],[1,0.5],[1,0.75],[1,1],[0.75,1],[0.5,1],[0.25,1],[0,1],[0,0.75],[0,0.5],[0,0.25]];outlineConnect=0;gradientColor=none;html=1;whiteSpace=wrap;fontSize=12;fontStyle=0;shape=mxgraph.aws4.group;grIcon=mxgraph.aws4.group_security_group;grStroke=0;strokeColor=#248814;fillColor=#E9F3E6;verticalAlign=top;align=left;spacingLeft=30;fontColor=#248814;dashed=0;rounded=0;shadow=0;glass=0;sketch=0;" vertex="1" parent="1">
          <mxGeometry x="320.75" y="-540" width="240" height="130" as="geometry" />
        </mxCell>
        <mxCell id="6aDpFVfZze4w23CBUoU--94" value="Auto Scaling group" style="points=[[0,0],[0.25,0],[0.5,0],[0.75,0],[1,0],[1,0.25],[1,0.5],[1,0.75],[1,1],[0.75,1],[0.5,1],[0.25,1],[0,1],[0,0.75],[0,0.5],[0,0.25]];outlineConnect=0;gradientColor=none;html=1;whiteSpace=wrap;fontSize=12;fontStyle=0;shape=mxgraph.aws4.groupCenter;grIcon=mxgraph.aws4.group_auto_scaling_group;grStroke=1;strokeColor=#D86613;fillColor=none;verticalAlign=top;align=center;fontColor=#D86613;dashed=1;spacingTop=25;rounded=0;shadow=0;glass=0;sketch=0;" vertex="1" parent="1">
          <mxGeometry x="464.25" y="-507" width="355.75" height="87" as="geometry" />
        </mxCell>
        <mxCell id="6aDpFVfZze4w23CBUoU--68" value="&lt;div&gt;&lt;span&gt;&lt;b&gt;&lt;font style=&quot;font-size: 13px&quot;&gt;AD&lt;/font&gt;&lt;/b&gt;&lt;/span&gt;&lt;/div&gt;" style="outlineConnect=0;gradientColor=none;html=1;whiteSpace=wrap;fontSize=12;fontStyle=0;strokeColor=#879196;fillColor=none;verticalAlign=top;align=center;fontColor=#879196;dashed=1;spacingTop=3;rounded=0;shadow=0;glass=0;sketch=0;" vertex="1" parent="1">
          <mxGeometry x="340" y="-340" width="600" height="100" as="geometry" />
        </mxCell>
        <mxCell id="6aDpFVfZze4w23CBUoU--113" style="edgeStyle=orthogonalEdgeStyle;rounded=0;orthogonalLoop=1;jettySize=auto;html=1;startArrow=classic;startFill=1;strokeColor=#B0B0B0;" edge="1" parent="1" source="6aDpFVfZze4w23CBUoU--59" target="6aDpFVfZze4w23CBUoU--112">
          <mxGeometry relative="1" as="geometry" />
        </mxCell>
        <mxCell id="6aDpFVfZze4w23CBUoU--59" value="" style="outlineConnect=0;fontColor=#232F3E;gradientColor=none;fillColor=#5A30B5;strokeColor=none;dashed=0;verticalLabelPosition=bottom;verticalAlign=top;align=center;html=1;fontSize=12;fontStyle=0;aspect=fixed;pointerEvents=1;shape=mxgraph.aws4.internet_gateway;rounded=0;shadow=0;glass=0;sketch=0;" vertex="1" parent="1">
          <mxGeometry x="620" y="-680" width="40" height="40" as="geometry" />
        </mxCell>
        <mxCell id="6aDpFVfZze4w23CBUoU--71" value="RDS para Oracle DB" style="outlineConnect=0;dashed=0;verticalLabelPosition=bottom;verticalAlign=top;align=center;html=1;shape=mxgraph.aws3.rds;fillColor=#2E73B8;gradientColor=none;rounded=0;shadow=0;glass=0;sketch=0;strokeColor=#454A52;" vertex="1" parent="1">
          <mxGeometry x="810" y="44.75" width="42" height="50.5" as="geometry" />
        </mxCell>
        <mxCell id="6aDpFVfZze4w23CBUoU--72" value="RDS para Oracle DB" style="outlineConnect=0;dashed=0;verticalLabelPosition=bottom;verticalAlign=top;align=center;html=1;shape=mxgraph.aws3.rds;fillColor=#2E73B8;gradientColor=none;rounded=0;shadow=0;glass=0;sketch=0;strokeColor=#454A52;" vertex="1" parent="1">
          <mxGeometry x="422.25" y="44.75" width="42" height="50.5" as="geometry" />
        </mxCell>
        <mxCell id="6aDpFVfZze4w23CBUoU--95" style="edgeStyle=orthogonalEdgeStyle;rounded=0;orthogonalLoop=1;jettySize=auto;html=1;startArrow=classic;startFill=1;strokeColor=#B0B0B0;" edge="1" parent="1" source="6aDpFVfZze4w23CBUoU--76" target="6aDpFVfZze4w23CBUoU--59">
          <mxGeometry relative="1" as="geometry" />
        </mxCell>
        <mxCell id="6aDpFVfZze4w23CBUoU--76" value="" style="outlineConnect=0;gradientColor=none;fontColor=#545B64;strokeColor=none;fillColor=#879196;dashed=0;verticalLabelPosition=bottom;verticalAlign=top;align=center;html=1;fontSize=12;fontStyle=0;aspect=fixed;shape=mxgraph.aws4.illustration_devices;pointerEvents=1;rounded=0;shadow=0;glass=0;sketch=0;" vertex="1" parent="1">
          <mxGeometry x="590" y="-810" width="100" height="73" as="geometry" />
        </mxCell>
        <mxCell id="6aDpFVfZze4w23CBUoU--120" value="" style="edgeStyle=orthogonalEdgeStyle;rounded=0;orthogonalLoop=1;jettySize=auto;html=1;startArrow=classic;startFill=1;strokeColor=#B0B0B0;" edge="1" parent="1" source="6aDpFVfZze4w23CBUoU--78" target="6aDpFVfZze4w23CBUoU--119">
          <mxGeometry relative="1" as="geometry" />
        </mxCell>
        <mxCell id="6aDpFVfZze4w23CBUoU--121" style="edgeStyle=orthogonalEdgeStyle;rounded=0;orthogonalLoop=1;jettySize=auto;html=1;startArrow=classic;startFill=1;strokeColor=#B0B0B0;" edge="1" parent="1" source="6aDpFVfZze4w23CBUoU--78" target="6aDpFVfZze4w23CBUoU--72">
          <mxGeometry relative="1" as="geometry" />
        </mxCell>
        <mxCell id="6aDpFVfZze4w23CBUoU--122" style="edgeStyle=orthogonalEdgeStyle;rounded=0;orthogonalLoop=1;jettySize=auto;html=1;startArrow=classic;startFill=1;strokeColor=#B0B0B0;" edge="1" parent="1" source="6aDpFVfZze4w23CBUoU--78" target="6aDpFVfZze4w23CBUoU--71">
          <mxGeometry relative="1" as="geometry" />
        </mxCell>
        <mxCell id="6aDpFVfZze4w23CBUoU--78" value="Processador" style="outlineConnect=0;fontColor=#232F3E;gradientColor=none;fillColor=#D05C17;strokeColor=none;dashed=0;verticalLabelPosition=bottom;verticalAlign=top;align=center;html=1;fontSize=12;fontStyle=0;aspect=fixed;pointerEvents=1;shape=mxgraph.aws4.lambda_function;rounded=0;shadow=0;glass=0;sketch=0;" vertex="1" parent="1">
          <mxGeometry x="618.12" y="46" width="48" height="48" as="geometry" />
        </mxCell>
        <mxCell id="6aDpFVfZze4w23CBUoU--82" value="RD Gateway" style="outlineConnect=0;fontColor=#232F3E;gradientColor=none;fillColor=#D86613;strokeColor=none;dashed=0;verticalLabelPosition=bottom;verticalAlign=top;align=center;html=1;fontSize=12;fontStyle=0;aspect=fixed;pointerEvents=1;shape=mxgraph.aws4.instance2;rounded=0;shadow=0;glass=0;sketch=0;" vertex="1" parent="1">
          <mxGeometry x="751" y="-496" width="52" height="52" as="geometry" />
        </mxCell>
        <mxCell id="6aDpFVfZze4w23CBUoU--83" value="NAT Gateway" style="outlineConnect=0;fontColor=#232F3E;gradientColor=none;fillColor=#5A30B5;strokeColor=none;dashed=0;verticalLabelPosition=bottom;verticalAlign=top;align=center;html=1;fontSize=12;fontStyle=0;aspect=fixed;pointerEvents=1;shape=mxgraph.aws4.nat_gateway;rounded=0;shadow=0;glass=0;sketch=0;" vertex="1" parent="1">
          <mxGeometry x="354.25" y="-489.5" width="52" height="52" as="geometry" />
        </mxCell>
        <mxCell id="6aDpFVfZze4w23CBUoU--85" value="RD Gateway" style="outlineConnect=0;fontColor=#232F3E;gradientColor=none;fillColor=#D86613;strokeColor=none;dashed=0;verticalLabelPosition=bottom;verticalAlign=top;align=center;html=1;fontSize=12;fontStyle=0;aspect=fixed;pointerEvents=1;shape=mxgraph.aws4.instance2;rounded=0;shadow=0;glass=0;sketch=0;" vertex="1" parent="1">
          <mxGeometry x="480" y="-496" width="53" height="53" as="geometry" />
        </mxCell>
        <mxCell id="6aDpFVfZze4w23CBUoU--98" value="Servidor Web" style="outlineConnect=0;fontColor=#232F3E;gradientColor=none;fillColor=#D86613;strokeColor=none;dashed=0;verticalLabelPosition=bottom;verticalAlign=top;align=center;html=1;fontSize=12;fontStyle=0;aspect=fixed;pointerEvents=1;shape=mxgraph.aws4.instance2;rounded=0;shadow=0;glass=0;sketch=0;" vertex="1" parent="1">
          <mxGeometry x="799" y="-200" width="60" height="60" as="geometry" />
        </mxCell>
        <mxCell id="6aDpFVfZze4w23CBUoU--99" value="Servidor Web" style="outlineConnect=0;fontColor=#232F3E;gradientColor=none;fillColor=#D86613;strokeColor=none;dashed=0;verticalLabelPosition=bottom;verticalAlign=top;align=center;html=1;fontSize=12;fontStyle=0;aspect=fixed;pointerEvents=1;shape=mxgraph.aws4.instance2;rounded=0;shadow=0;glass=0;sketch=0;" vertex="1" parent="1">
          <mxGeometry x="410.75" y="-200" width="60" height="60" as="geometry" />
        </mxCell>
        <mxCell id="6aDpFVfZze4w23CBUoU--100" value="Servidor de Aplicativos" style="outlineConnect=0;fontColor=#232F3E;gradientColor=none;fillColor=#D86613;strokeColor=none;dashed=0;verticalLabelPosition=bottom;verticalAlign=top;align=center;html=1;fontSize=12;fontStyle=0;aspect=fixed;pointerEvents=1;shape=mxgraph.aws4.instance2;rounded=0;shadow=0;glass=0;sketch=0;" vertex="1" parent="1">
          <mxGeometry x="410.75" y="-80" width="60" height="60" as="geometry" />
        </mxCell>
        <mxCell id="6aDpFVfZze4w23CBUoU--101" value="Servidor de Aplicativos" style="outlineConnect=0;fontColor=#232F3E;gradientColor=none;fillColor=#D86613;strokeColor=none;dashed=0;verticalLabelPosition=bottom;verticalAlign=top;align=center;html=1;fontSize=12;fontStyle=0;aspect=fixed;pointerEvents=1;shape=mxgraph.aws4.instance2;rounded=0;shadow=0;glass=0;sketch=0;" vertex="1" parent="1">
          <mxGeometry x="799" y="-80" width="60" height="60" as="geometry" />
        </mxCell>
        <mxCell id="6aDpFVfZze4w23CBUoU--117" style="edgeStyle=orthogonalEdgeStyle;rounded=0;orthogonalLoop=1;jettySize=auto;html=1;startArrow=classic;startFill=1;strokeColor=#B0B0B0;" edge="1" parent="1" source="6aDpFVfZze4w23CBUoU--111" target="6aDpFVfZze4w23CBUoU--101">
          <mxGeometry relative="1" as="geometry" />
        </mxCell>
        <mxCell id="6aDpFVfZze4w23CBUoU--118" style="edgeStyle=orthogonalEdgeStyle;rounded=0;orthogonalLoop=1;jettySize=auto;html=1;startArrow=classic;startFill=1;strokeColor=#B0B0B0;" edge="1" parent="1" source="6aDpFVfZze4w23CBUoU--111" target="6aDpFVfZze4w23CBUoU--100">
          <mxGeometry relative="1" as="geometry" />
        </mxCell>
        <mxCell id="6aDpFVfZze4w23CBUoU--111" value="Load Balancer" style="outlineConnect=0;fontColor=#232F3E;gradientColor=none;fillColor=#5A30B5;strokeColor=none;dashed=0;verticalLabelPosition=bottom;verticalAlign=top;align=center;html=1;fontSize=12;fontStyle=0;aspect=fixed;pointerEvents=1;shape=mxgraph.aws4.network_load_balancer;rounded=0;shadow=0;glass=0;sketch=0;" vertex="1" parent="1">
          <mxGeometry x="620" y="-70" width="40" height="40" as="geometry" />
        </mxCell>
        <mxCell id="6aDpFVfZze4w23CBUoU--114" style="edgeStyle=orthogonalEdgeStyle;rounded=0;orthogonalLoop=1;jettySize=auto;html=1;startArrow=classic;startFill=1;strokeColor=#B0B0B0;" edge="1" parent="1" source="6aDpFVfZze4w23CBUoU--112" target="6aDpFVfZze4w23CBUoU--98">
          <mxGeometry relative="1" as="geometry" />
        </mxCell>
        <mxCell id="6aDpFVfZze4w23CBUoU--115" style="edgeStyle=orthogonalEdgeStyle;rounded=0;orthogonalLoop=1;jettySize=auto;html=1;startArrow=classic;startFill=1;strokeColor=#B0B0B0;" edge="1" parent="1" source="6aDpFVfZze4w23CBUoU--112" target="6aDpFVfZze4w23CBUoU--99">
          <mxGeometry relative="1" as="geometry" />
        </mxCell>
        <mxCell id="6aDpFVfZze4w23CBUoU--116" style="edgeStyle=orthogonalEdgeStyle;rounded=0;orthogonalLoop=1;jettySize=auto;html=1;startArrow=classic;startFill=1;strokeColor=#B0B0B0;" edge="1" parent="1" source="6aDpFVfZze4w23CBUoU--112" target="6aDpFVfZze4w23CBUoU--111">
          <mxGeometry relative="1" as="geometry" />
        </mxCell>
        <mxCell id="6aDpFVfZze4w23CBUoU--112" value="Load Balancer" style="outlineConnect=0;fontColor=#232F3E;gradientColor=none;fillColor=#5A30B5;strokeColor=none;dashed=0;verticalLabelPosition=bottom;verticalAlign=top;align=center;html=1;fontSize=12;fontStyle=0;aspect=fixed;pointerEvents=1;shape=mxgraph.aws4.network_load_balancer;rounded=0;shadow=0;glass=0;sketch=0;" vertex="1" parent="1">
          <mxGeometry x="620" y="-190" width="40" height="40" as="geometry" />
        </mxCell>
        <mxCell id="6aDpFVfZze4w23CBUoU--126" style="edgeStyle=orthogonalEdgeStyle;rounded=0;orthogonalLoop=1;jettySize=auto;html=1;startArrow=classic;startFill=1;strokeColor=#B0B0B0;" edge="1" parent="1" source="6aDpFVfZze4w23CBUoU--119" target="6aDpFVfZze4w23CBUoU--125">
          <mxGeometry relative="1" as="geometry" />
        </mxCell>
        <mxCell id="6aDpFVfZze4w23CBUoU--127" style="edgeStyle=orthogonalEdgeStyle;rounded=0;orthogonalLoop=1;jettySize=auto;html=1;startArrow=classic;startFill=1;strokeColor=#B0B0B0;" edge="1" parent="1" source="6aDpFVfZze4w23CBUoU--119" target="6aDpFVfZze4w23CBUoU--124">
          <mxGeometry relative="1" as="geometry" />
        </mxCell>
        <mxCell id="6aDpFVfZze4w23CBUoU--119" value="Consumidor" style="outlineConnect=0;fontColor=#232F3E;gradientColor=none;fillColor=#D05C17;strokeColor=none;dashed=0;verticalLabelPosition=bottom;verticalAlign=top;align=center;html=1;fontSize=12;fontStyle=0;aspect=fixed;pointerEvents=1;shape=mxgraph.aws4.lambda_function;rounded=0;shadow=0;glass=0;sketch=0;" vertex="1" parent="1">
          <mxGeometry x="618.12" y="166" width="48" height="48" as="geometry" />
        </mxCell>
        <mxCell id="6aDpFVfZze4w23CBUoU--124" value="Bucket de Backup" style="outlineConnect=0;fontColor=#232F3E;gradientColor=none;fillColor=#277116;strokeColor=none;dashed=0;verticalLabelPosition=bottom;verticalAlign=top;align=center;html=1;fontSize=12;fontStyle=0;aspect=fixed;pointerEvents=1;shape=mxgraph.aws4.bucket;rounded=0;shadow=0;glass=0;sketch=0;" vertex="1" parent="1">
          <mxGeometry x="418.25" y="164" width="50" height="52" as="geometry" />
        </mxCell>
        <mxCell id="6aDpFVfZze4w23CBUoU--125" value="Bucket de Backup" style="outlineConnect=0;fontColor=#232F3E;gradientColor=none;fillColor=#277116;strokeColor=none;dashed=0;verticalLabelPosition=bottom;verticalAlign=top;align=center;html=1;fontSize=12;fontStyle=0;aspect=fixed;pointerEvents=1;shape=mxgraph.aws4.bucket;rounded=0;shadow=0;glass=0;sketch=0;" vertex="1" parent="1">
          <mxGeometry x="810" y="164" width="50" height="52" as="geometry" />
        </mxCell>
        <mxCell id="6aDpFVfZze4w23CBUoU--128" value="Active Directory" style="outlineConnect=0;fontColor=#232F3E;gradientColor=#F54749;gradientDirection=north;fillColor=#C7131F;strokeColor=#ffffff;dashed=0;verticalLabelPosition=bottom;verticalAlign=top;align=center;html=1;fontSize=12;fontStyle=0;aspect=fixed;shape=mxgraph.aws4.resourceIcon;resIcon=mxgraph.aws4.cloud_directory;rounded=0;shadow=0;glass=0;sketch=0;" vertex="1" parent="1">
          <mxGeometry x="412.75" y="-330" width="61" height="61" as="geometry" />
        </mxCell>
        <mxCell id="6aDpFVfZze4w23CBUoU--129" value="Active Directory" style="outlineConnect=0;fontColor=#232F3E;gradientColor=#F54749;gradientDirection=north;fillColor=#C7131F;strokeColor=#ffffff;dashed=0;verticalLabelPosition=bottom;verticalAlign=top;align=center;html=1;fontSize=12;fontStyle=0;aspect=fixed;shape=mxgraph.aws4.resourceIcon;resIcon=mxgraph.aws4.cloud_directory;rounded=0;shadow=0;glass=0;sketch=0;" vertex="1" parent="1">
          <mxGeometry x="800.5" y="-330" width="61" height="61" as="geometry" />
        </mxCell>
      </root>
    </mxGraphModel>
  </diagram>
</mxfile>
